<svg id="Layer_1" data-name="Layer 1" xmlns="http://www.w3.org/2000/svg" viewBox="0 0 200 200"><title>Obrien_CTALogo_KD</title><path d="M31.68,89.84l12-2.58a57.45,57.45,0,0,1,49-44.15l2.51-11.59A68.76,68.76,0,0,0,31.68,89.84Z" style="fill:#7c999a"/><path d="M109.77,32.15l2.51,12a57.45,57.45,0,0,1,44.15,49L168,95.61A68.74,68.74,0,0,0,109.77,32.15Z" style="fill:#7c999a"/><path d="M155.4,112.74a57.44,57.44,0,0,1-49,44.15l-2.51,11.58a68.73,68.73,0,0,0,63.46-58.26Z" style="fill:#7c999a"/><path d="M42.65,106.9l-11.58-2.51a68.71,68.71,0,0,0,58.24,63.45l-2.49-12A57.45,57.45,0,0,1,42.65,106.9Z" style="fill:#7c999a"/><path d="M185.07,98.35,126.39,87.19a1,1,0,0,1-.68-1.36l10.2-21a1,1,0,0,0-1.3-1.27L113.76,74.05a.93.93,0,0,1-.86,0l-7.84,16A10.53,10.53,0,0,1,95.8,109l-8.43,17.21a.89.89,0,0,1,.23.44l12.18,58.48a1,1,0,0,0,1.87,0l11.17-58.68a1,1,0,0,1,1.35-.68l21,10.2a1,1,0,0,0,1.27-1.29L126,113.76a1,1,0,0,1,.66-1.36l58.48-12.18A1,1,0,0,0,185.07,98.35Z" style="fill:#ecb21f"/><path d="M89.47,99.3a10.53,10.53,0,0,1,15.58-9.24l7.85-16a.91.91,0,0,1-.5-.65L100.22,14.91a1,1,0,0,0-1.87,0L87.18,73.61a1,1,0,0,1-1.35.68l-21-10.2a1,1,0,0,0-1.27,1.29L74.05,86.24a1,1,0,0,1-.66,1.36L14.91,99.78a1,1,0,0,0,0,1.87l58.68,11.16a1,1,0,0,1,.68,1.36l-10.2,21a1,1,0,0,0,1.29,1.27L86.24,126a.94.94,0,0,1,1.13.22L95.8,109A10.52,10.52,0,0,1,89.47,99.3Z" style="fill:#f0c04a"/></svg>